<?xml version="1.0" encoding="UTF-8" standalone="no"?><!DOCTYPE svg PUBLIC "-//W3C//DTD SVG 1.1//EN" "http://www.w3.org/Graphics/SVG/1.1/DTD/svg11.dtd"><svg width="100%" height="100%" viewBox="0 0 534 467" version="1.1" xmlns="http://www.w3.org/2000/svg" xmlns:xlink="http://www.w3.org/1999/xlink" xml:space="preserve" xmlns:serif="http://www.serif.com/" style="fill-rule:evenodd;clip-rule:evenodd;stroke-linejoin:round;stroke-miterlimit:1.41421;"><rect id="LOGO_SVG" x="0" y="0" width="533.017" height="466.236" style="fill:none;"/><path id="HAUT" d="M126.273,307.697c0,0 36.259,19.886 71.138,-5.073c23.623,-16.904 38.914,-36.719 38.914,-36.719c0,0 51.831,71.089 84.016,62.791c32.184,-8.298 103.795,-105.95 103.795,-105.95c0,0 -36.216,-19.469 -70.624,4.43c-24.094,16.737 -38.913,36.72 -38.913,36.72c0,0 -52.629,-70.092 -84.016,-62.792c-31.388,7.301 -104.31,106.593 -104.31,106.593Z" style="fill:url(#_Linear1);"/><path id="BAS" d="M145.7,271.993c-16.301,-1.043 -27.823,-7.362 -27.823,-7.362c0,0 72.922,-99.293 104.31,-106.593c31.387,-7.3 84.015,62.792 84.015,62.792c0,0 14.82,-19.984 38.914,-36.72c34.408,-23.9 70.624,-4.43 70.624,-4.43c0,0 -7.825,10.671 -19.464,25.257c-12.516,-0.838 -27.811,1.358 -42.764,11.744c-24.094,16.737 -38.913,36.72 -38.913,36.72c0,0 -52.629,-70.092 -84.016,-62.792c-21.113,4.911 -61.019,51.445 -84.883,81.384Z" style="fill:url(#_Linear2);"/><defs><linearGradient id="_Linear1" x1="0" y1="0" x2="1" y2="0" gradientUnits="userSpaceOnUse" gradientTransform="matrix(220.692,94.7661,-77.1737,179.722,164.86,217.836)"><stop offset="0" style="stop-color:#00d9ff;stop-opacity:1"/><stop offset="1" style="stop-color:#c0ffa3;stop-opacity:1"/></linearGradient><linearGradient id="_Linear2" x1="0" y1="0" x2="1" y2="0" gradientUnits="userSpaceOnUse" gradientTransform="matrix(297.863,0,0,114.358,117.877,214.741)"><stop offset="0" style="stop-color:#00d9ff;stop-opacity:1"/><stop offset="1" style="stop-color:#c0ffa3;stop-opacity:1"/></linearGradient></defs></svg>